<svg xmlns="http://www.w3.org/2000/svg" viewBox="0 0 1000 580" role="img" aria-label="先确定改变了什么，再选对照实验"><style>text{font-family:PingFang SC,Noto Sans CJK SC,Microsoft YaHei,sans-serif}</style><rect width="1000" height="580" fill="#f5f2eb"/><text x="42" y="59" fill="#182b3a" font-size="33" font-weight="650">先确定改变了什么，再选对照实验</text><text x="42" y="96" fill="#596a75" font-size="19" font-weight="400">六篇论文分别切入不同环节，排行榜数字不能脱离设置。</text><rect x="42" y="130" width="445" height="120" rx="14" fill="#ffffff" stroke="#d4dcd9"/><text x="62" y="161" fill="#236580" font-size="22" font-weight="600">AgentGrad</text><text x="62" y="196" fill="#182b3a" font-size="23" font-weight="400">改变提示词</text><text x="62" y="229" fill="#596a75" font-size="19" font-weight="400">逐步干预 + 反馈消融</text><rect x="507" y="130" width="445" height="120" rx="14" fill="#ffffff" stroke="#d4dcd9"/><text x="527" y="161" fill="#236580" font-size="22" font-weight="600">PARSER</text><text x="527" y="196" fill="#182b3a" font-size="23" font-weight="400">改变阅读流程</text><text x="527" y="229" fill="#596a75" font-size="19" font-weight="400">顺序 / 并行 + 并发对照</text><rect x="42" y="270" width="445" height="120" rx="14" fill="#ffffff" stroke="#d4dcd9"/><text x="62" y="301" fill="#236580" font-size="22" font-weight="600">SWE-Bench Pro Verified</text><text x="62" y="336" fill="#182b3a" font-size="23" font-weight="400">改变评测环境</text><text x="62" y="369" fill="#596a75" font-size="19" font-weight="400">泄漏隔离 + 题目修订</text><rect x="507" y="270" width="445" height="120" rx="14" fill="#ffffff" stroke="#d4dcd9"/><text x="527" y="301" fill="#236580" font-size="22" font-weight="600">Φ-Bench</text><text x="527" y="336" fill="#182b3a" font-size="23" font-weight="400">改变任务范围</text><text x="527" y="369" fill="#596a75" font-size="19" font-weight="400">内核 / 跨文件 / 端到端</text><rect x="42" y="410" width="445" height="120" rx="14" fill="#ffffff" stroke="#d4dcd9"/><text x="62" y="441" fill="#236580" font-size="22" font-weight="600">Reasoning Traces</text><text x="62" y="476" fill="#182b3a" font-size="23" font-weight="400">改变训练材料</text><text x="62" y="509" fill="#596a75" font-size="19" font-weight="400">完整 / 开头 / 结尾 / 两端</text><rect x="507" y="410" width="445" height="120" rx="14" fill="#ffffff" stroke="#d4dcd9"/><text x="527" y="441" fill="#236580" font-size="22" font-weight="600">DATPO</text><text x="527" y="476" fill="#182b3a" font-size="23" font-weight="400">改变探索方式</text><text x="527" y="509" fill="#596a75" font-size="19" font-weight="400">固定预算 + 分支多样性</text><text x="42" y="569" fill="#596a75" font-size="16" font-weight="400">原创方法地图 · 各论文实验结果与限制见正文及阅读卡。</text></svg>
