<svg xmlns="http://www.w3.org/2000/svg" width="960" height="710" viewBox="0 0 960 710" role="img"><title>前沿 · 首期阅读地图</title><rect width="960" height="710" rx="24" fill="#f3f6fa"/><g font-family="PingFang SC,Microsoft YaHei,sans-serif"><text x="40" y="55" font-size="30" font-weight="700" fill="#12283e">前沿 · 首期阅读地图</text><text x="40" y="91" font-size="18" fill="#506477">2026.09.08  /  从信息发现走向可验证的实现</text><rect x="32" y="120" width="896" height="92" rx="14" fill="white"/><rect x="32" y="120" width="7" height="92" rx="3" fill="#16877e"/><text x="57" y="154" font-size="24" font-weight="600" fill="#17475a">01  AI 动态 · 9 条</text><text x="57" y="187" font-size="19" fill="#4d6070">研究自动化、模型发布、天气、语音数据与浏览器计算</text><rect x="32" y="230" width="896" height="92" rx="14" fill="white"/><rect x="32" y="230" width="7" height="92" rx="3" fill="#16877e"/><text x="57" y="264" font-size="24" font-weight="600" fill="#17475a">02  开源模型 · 3 组</text><text x="57" y="297" font-size="19" fill="#4d6070">EVIE：文档检索  /  Qwen-Drive：驾驶  /  K2 Horizon：语言模型</text><rect x="32" y="340" width="896" height="92" rx="14" fill="white"/><rect x="32" y="340" width="7" height="92" rx="3" fill="#16877e"/><text x="57" y="374" font-size="24" font-weight="600" fill="#17475a">03  论文精选 · 2 篇</text><text x="57" y="407" font-size="19" fill="#4d6070">TailRL：寻找高奖励结果  /  SAGE：何时向老师求助</text><rect x="32" y="450" width="896" height="92" rx="14" fill="white"/><rect x="32" y="450" width="7" height="92" rx="3" fill="#16877e"/><text x="57" y="484" font-size="24" font-weight="600" fill="#17475a">04  GitHub 热门 · 3 项</text><text x="57" y="517" font-size="19" fill="#4d6070">本地推理 → 服务部署 → 网页数据采集</text><rect x="32" y="560" width="896" height="92" rx="14" fill="white"/><rect x="32" y="560" width="7" height="92" rx="3" fill="#16877e"/><text x="57" y="594" font-size="24" font-weight="600" fill="#17475a">05  技术实践 · 1 个</text><text x="57" y="627" font-size="19" fill="#4d6070">用纯 Python 算清楚多向量检索 MaxSim</text></g></svg>