<svg xmlns="http://www.w3.org/2000/svg" width="1200" height="680" viewBox="0 0 1200 680" role="img" aria-label="今天，从了解变化到动手验证"><title>今天，从了解变化到动手验证</title><desc>按目标选择阅读深度；栏目可以独立阅读。；图为编辑原创阅读地图；阅读顺序不代表性能或重要性评分。</desc><defs><marker id="arrow" markerWidth="10" markerHeight="10" refX="8" refY="5" orient="auto"><path d="M0 1 L8 5 L0 9" fill="none" stroke="#26776d" stroke-width="1.5"/></marker></defs><rect width="1200" height="680" fill="#f5f8f7"/><g font-family="PingFang SC, Noto Sans CJK SC, Microsoft YaHei, sans-serif"><text x="48" y="62" font-size="18" fill="#26776d" font-weight="650">FRONTIERS  /  2026.09.10</text><text x="48" y="117" font-size="37" fill="#182b36" font-weight="700">今天，从了解变化到动手验证</text><text x="48" y="158" font-size="24" fill="#506471" font-weight="400">按目标选择阅读深度；栏目可以独立阅读。</text><rect x="48" y="225" width="202" height="282" rx="16" fill="#e5f2ed" stroke="#91bfb1" stroke-width="2"/><text x="72" y="272" font-size="28" fill="#182b36" font-weight="650">AI 动态</text><text x="72" y="319" font-size="24" fill="#506471" font-weight="400">15 条</text><text x="72" y="358" font-size="24" fill="#506471" font-weight="400">5 条详解</text><text x="72" y="397" font-size="24" fill="#506471" font-weight="400">10 条速读</text><rect x="271" y="225" width="202" height="282" rx="16" fill="#ffffff" stroke="#d7e1e4" stroke-width="2"/><text x="295" y="272" font-size="28" fill="#182b36" font-weight="650">开源模型</text><text x="295" y="319" font-size="24" fill="#506471" font-weight="400">2 组</text><text x="295" y="358" font-size="24" fill="#506471" font-weight="400">语音处理</text><text x="295" y="397" font-size="24" fill="#506471" font-weight="400">时序预测</text><rect x="494" y="225" width="202" height="282" rx="16" fill="#ffffff" stroke="#d7e1e4" stroke-width="2"/><text x="518" y="272" font-size="28" fill="#182b36" font-weight="650">论文精选</text><text x="518" y="319" font-size="24" fill="#506471" font-weight="400">2 篇</text><text x="518" y="358" font-size="24" fill="#506471" font-weight="400">执行结构</text><text x="518" y="397" font-size="24" fill="#506471" font-weight="400">学习方向</text><rect x="717" y="225" width="202" height="282" rx="16" fill="#ffffff" stroke="#d7e1e4" stroke-width="2"/><text x="741" y="272" font-size="28" fill="#182b36" font-weight="650">开源项目</text><text x="741" y="319" font-size="24" fill="#506471" font-weight="400">10 项</text><text x="741" y="358" font-size="24" fill="#506471" font-weight="400">资料与开发</text><text x="741" y="397" font-size="24" fill="#506471" font-weight="400">分析与创作</text><rect x="940" y="225" width="202" height="282" rx="16" fill="#ffffff" stroke="#d7e1e4" stroke-width="2"/><text x="964" y="272" font-size="28" fill="#182b36" font-weight="650">技术实践</text><text x="964" y="319" font-size="24" fill="#506471" font-weight="400">1 个实验</text><text x="964" y="358" font-size="24" fill="#506471" font-weight="400">中断后恢复</text><text x="964" y="397" font-size="24" fill="#506471" font-weight="400">重新核验</text><text x="48" y="558" font-size="26" fill="#182b36" font-weight="400">先选一件与你当前任务有关的事，再沿原始来源继续阅读。</text><line x1="48" y1="605" x2="1152" y2="605" stroke="#d7e1e4" stroke-width="2"/><text x="48" y="642" font-size="22" fill="#506471" font-weight="400">图为编辑原创阅读地图；阅读顺序不代表性能或重要性评分。</text></g></svg>
