<svg xmlns="http://www.w3.org/2000/svg" width="1200" height="700" viewBox="0 0 1200 700" role="img" aria-label="预算分析 Agent｜完整能力架构">
<defs><marker id="a" markerWidth="9" markerHeight="9" refX="8" refY="4.5" orient="auto"><path d="M0 0 L9 4.5 L0 9" fill="#55718a"/></marker></defs>
<rect width="1200" height="700" fill="#f4f7fb"/>
<g font-family="PingFang SC,Microsoft YaHei,sans-serif">
<text x="40" y="45" font-size="27" font-weight="700" fill="#152b43">预算分析 Agent｜完整能力架构</text>
<text x="40" y="78" font-size="16" fill="#526880">目标设计 · Java 保留业务与数据边界，Agent 管方法选择和多步执行</text>
<path d="M360 180 L438 180" fill="none" stroke="#55718a" stroke-width="2.2" marker-end="url(#a)"/>
<path d="M760 180 L838 180" fill="none" stroke="#55718a" stroke-width="2.2" marker-end="url(#a)"/>
<path d="M360 380 L438 380" fill="none" stroke="#55718a" stroke-width="2.2" marker-end="url(#a)"/>
<path d="M600 320 L600 275 L820 275 L820 210 L838 210" fill="none" stroke="#55718a" stroke-width="2.2" marker-end="url(#a)"/>
<text x="650" y="264" font-size="14" fill="#526880">提交分析</text>
<path d="M1000 240 L1000 318" fill="none" stroke="#55718a" stroke-width="2.2" marker-end="url(#a)"/>
<text x="1010" y="285" font-size="14" fill="#526880">调用工具</text>
<path d="M1000 440 L1000 518" fill="none" stroke="#55718a" stroke-width="2.2" marker-end="url(#a)"/>
<text x="1010" y="485" font-size="14" fill="#526880">业务执行</text>
<path d="M840 580 L762 580" fill="none" stroke="#55718a" stroke-width="2.2" marker-end="url(#a)"/>
<path d="M440 580 L362 580" fill="none" stroke="#55718a" stroke-width="2.2" marker-end="url(#a)"/>
<path d="M200 520 L200 442" fill="none" stroke="#55718a" stroke-width="2.2" marker-end="url(#a)"/>
<text x="210" y="485" font-size="14" fill="#526880">交付</text>
<rect x="40" y="120" width="320" height="120" rx="12" fill="white" stroke="#b9ccdf"/>
<rect x="40" y="120" width="5" height="120" rx="2" fill="#147e87"/>
<text x="58" y="150" font-size="20" font-weight="600" fill="#152b43">业务维护</text>
<text x="58" y="179" font-size="16" fill="#526880">分析方法 · 输出规范</text>
<rect x="440" y="120" width="320" height="120" rx="12" fill="white" stroke="#b9ccdf"/>
<rect x="440" y="120" width="5" height="120" rx="2" fill="#147e87"/>
<text x="458" y="150" font-size="20" font-weight="600" fill="#152b43">Skill 管理</text>
<text x="458" y="179" font-size="16" fill="#526880">草稿 · 校验 · 版本发布</text>
<rect x="840" y="120" width="320" height="120" rx="12" fill="white" stroke="#b9ccdf"/>
<rect x="840" y="120" width="5" height="120" rx="2" fill="#147e87"/>
<text x="858" y="150" font-size="20" font-weight="600" fill="#152b43">Python / LangGraph</text>
<text x="858" y="179" font-size="16" fill="#526880">加载 Skill · 模型决策</text>
<text x="858" y="204" font-size="16" fill="#526880">状态与恢复 · 工具执行器</text>
<rect x="40" y="320" width="320" height="120" rx="12" fill="white" stroke="#b9ccdf"/>
<rect x="40" y="320" width="5" height="120" rx="2" fill="#147e87"/>
<text x="58" y="350" font-size="20" font-weight="600" fill="#152b43">用户与页面</text>
<text x="58" y="379" font-size="16" fill="#526880">提出目标 · 追问回答</text>
<text x="58" y="404" font-size="16" fill="#526880">查看结果 · 下载与核对</text>
<rect x="440" y="320" width="320" height="120" rx="12" fill="white" stroke="#b9ccdf"/>
<rect x="440" y="320" width="5" height="120" rx="2" fill="#147e87"/>
<text x="458" y="350" font-size="20" font-weight="600" fill="#152b43">Java 接入模块</text>
<text x="458" y="379" font-size="16" fill="#526880">身份与任务归属</text>
<text x="458" y="404" font-size="16" fill="#526880">短时受理 · 进度查询</text>
<rect x="840" y="320" width="320" height="120" rx="12" fill="white" stroke="#b9ccdf"/>
<rect x="840" y="320" width="5" height="120" rx="2" fill="#147e87"/>
<text x="858" y="350" font-size="20" font-weight="600" fill="#152b43">Java MCP 工具模块</text>
<text x="858" y="379" font-size="16" fill="#526880">Function Calling 适配后调用</text>
<text x="858" y="404" font-size="16" fill="#526880">薄包装 · 复用领域服务</text>
<rect x="840" y="520" width="320" height="120" rx="12" fill="white" stroke="#b9ccdf"/>
<rect x="840" y="520" width="5" height="120" rx="2" fill="#147e87"/>
<text x="858" y="550" font-size="20" font-weight="600" fill="#152b43">Java 查询与权限</text>
<text x="858" y="579" font-size="16" fill="#526880">标准指标 / 受限 Text-to-SQL</text>
<text x="858" y="604" font-size="16" fill="#526880">有效查询 · 数据发布版本</text>
<rect x="440" y="520" width="320" height="120" rx="12" fill="white" stroke="#b9ccdf"/>
<rect x="440" y="520" width="5" height="120" rx="2" fill="#147e87"/>
<text x="458" y="550" font-size="20" font-weight="600" fill="#152b43">不可变结果集</text>
<text x="458" y="579" font-size="16" fill="#526880">result_id · 来源与权限</text>
<text x="458" y="604" font-size="16" fill="#526880">完整数据 · 类型 · 校验摘要</text>
<rect x="40" y="520" width="320" height="120" rx="12" fill="white" stroke="#b9ccdf"/>
<rect x="40" y="520" width="5" height="120" rx="2" fill="#147e87"/>
<text x="58" y="550" font-size="20" font-weight="600" fill="#152b43">多格式产物</text>
<text x="58" y="579" font-size="16" fill="#526880">SVG · Excel · 原查询数据</text>
<text x="58" y="604" font-size="16" fill="#526880">manifest · 下载鉴权</text>
</g></svg>