<svg xmlns="http://www.w3.org/2000/svg" width="1200" height="750" viewBox="0 0 1200 750" role="img" aria-label="统一结果集｜多格式交付与核对">
<defs><marker id="a" markerWidth="9" markerHeight="9" refX="8" refY="4.5" orient="auto"><path d="M0 0 L9 4.5 L0 9" fill="#55718a"/></marker></defs>
<rect width="1200" height="750" fill="#f4f7fb"/>
<g font-family="PingFang SC,Microsoft YaHei,sans-serif">
<text x="40" y="45" font-size="27" font-weight="700" fill="#152b43">统一结果集｜多格式交付与核对</text>
<text x="40" y="78" font-size="16" fill="#526880">原查询结果、图表数据、底层明细分层管理；每个产物保留来源</text>
<path d="M360 180 L438 180" fill="none" stroke="#55718a" stroke-width="2.2" marker-end="url(#a)"/>
<path d="M760 180 L838 180" fill="none" stroke="#55718a" stroke-width="2.2" marker-end="url(#a)"/>
<path d="M600 240 L600 285 L200 285 L200 348" fill="none" stroke="#55718a" stroke-width="2.2" marker-end="url(#a)"/>
<path d="M600 240 L600 348" fill="none" stroke="#55718a" stroke-width="2.2" marker-end="url(#a)"/>
<path d="M1000 240 L1000 348" fill="none" stroke="#55718a" stroke-width="2.2" marker-end="url(#a)"/>
<path d="M200 470 L200 520 L450 520 L450 568" fill="none" stroke="#55718a" stroke-width="2.2" marker-end="url(#a)"/>
<path d="M600 470 L600 568" fill="none" stroke="#55718a" stroke-width="2.2" marker-end="url(#a)"/>
<path d="M1000 470 L1000 520 L750 520 L750 568" fill="none" stroke="#55718a" stroke-width="2.2" marker-end="url(#a)"/>
<rect x="40" y="120" width="320" height="120" rx="12" fill="white" stroke="#b9ccdf"/>
<rect x="40" y="120" width="5" height="120" rx="2" fill="#147e87"/>
<text x="58" y="150" font-size="20" font-weight="600" fill="#152b43">通过验证的查询</text>
<text x="58" y="179" font-size="16" fill="#526880">权限 · 口径 · 参数 · 版本</text>
<rect x="440" y="120" width="320" height="120" rx="12" fill="white" stroke="#b9ccdf"/>
<rect x="440" y="120" width="5" height="120" rx="2" fill="#147e87"/>
<text x="458" y="150" font-size="20" font-weight="600" fill="#152b43">不可变 QueryResult</text>
<text x="458" y="179" font-size="16" fill="#526880">完整行列 · 类型 · 单位</text>
<text x="458" y="204" font-size="16" fill="#526880">result_id · 行数 · 数据摘要</text>
<rect x="840" y="120" width="320" height="120" rx="12" fill="white" stroke="#b9ccdf"/>
<rect x="840" y="120" width="5" height="120" rx="2" fill="#147e87"/>
<text x="858" y="150" font-size="20" font-weight="600" fill="#152b43">产物计划</text>
<text x="858" y="179" font-size="16" fill="#526880">ChartSpec · 模板 · 格式</text>
<text x="858" y="204" font-size="16" fill="#526880">冻结变换与版本</text>
<rect x="40" y="350" width="320" height="120" rx="12" fill="white" stroke="#b9ccdf"/>
<rect x="40" y="350" width="5" height="120" rx="2" fill="#147e87"/>
<text x="58" y="380" font-size="20" font-weight="600" fill="#152b43">原查询数据</text>
<text x="58" y="409" font-size="16" fill="#526880">JSONL / CSV</text>
<text x="58" y="434" font-size="16" fill="#526880">完整结果，非页面预览</text>
<rect x="440" y="350" width="320" height="120" rx="12" fill="white" stroke="#b9ccdf"/>
<rect x="440" y="350" width="5" height="120" rx="2" fill="#147e87"/>
<text x="458" y="380" font-size="20" font-weight="600" fill="#152b43">SVG 与图表数据</text>
<text x="458" y="409" font-size="16" fill="#526880">确定性变换与渲染</text>
<text x="458" y="434" font-size="16" fill="#526880">图表点逐项可核对</text>
<rect x="840" y="350" width="320" height="120" rx="12" fill="white" stroke="#b9ccdf"/>
<rect x="840" y="350" width="5" height="120" rx="2" fill="#147e87"/>
<text x="858" y="380" font-size="20" font-weight="600" fill="#152b43">Excel 与分析报告</text>
<text x="858" y="409" font-size="16" fill="#526880">说明 / 结果 / 图表数据</text>
<text x="858" y="434" font-size="16" fill="#526880">底层明细另查权限</text>
<rect x="240" y="570" width="720" height="120" rx="12" fill="white" stroke="#b9ccdf"/>
<rect x="240" y="570" width="5" height="120" rx="2" fill="#147e87"/>
<text x="258" y="600" font-size="20" font-weight="600" fill="#152b43">核对 manifest 与交付</text>
<text x="258" y="629" font-size="16" fill="#526880">来源 · 条件 · 变换 · 行数 · 文件摘要 · 完整性</text>
<text x="258" y="654" font-size="16" fill="#526880">当前权限校验；格式失败单独重试，查询不重跑</text>
</g></svg>